<svg xmlns="http://www.w3.org/2000/svg" width="11" height="10" viewBox="0 0 11 10" fill="none">
    <path
        d="M4.15487 8.38641C4.10195 8.36449 4.05673 8.32737 4.02491 8.27976C3.99309 8.23214 3.97611 8.17615 3.97611 8.11888L3.97724 2.3274C3.9772 2.27009 3.99417 2.21407 4.026 2.16641C4.05782 2.11876 4.10307 2.08161 4.15602 2.05969C4.20896 2.03776 4.26722 2.03204 4.32342 2.04324C4.37962 2.05445 4.43124 2.08207 4.47173 2.12262L7.3669 5.01893C7.39382 5.04583 7.41517 5.07777 7.42974 5.11292C7.4443 5.14808 7.45179 5.18576 7.45179 5.22382C7.45178 5.26187 7.44427 5.29955 7.42969 5.3347C7.41511 5.36985 7.39375 5.40179 7.36682 5.42867L4.47051 8.32385C4.42999 8.36432 4.37837 8.39187 4.32218 8.40301C4.26599 8.41414 4.20777 8.40837 4.15487 8.38641Z"
        fill="#C7C7C7" />
</svg>