<svg width="372" height="127" viewBox="0 0 372 127" fill="none" xmlns="http://www.w3.org/2000/svg">
    <path d="M45 120L20 103H45V120Z" fill="#232631" />
    <g filter="url(#filter0_d_275_432)">
        <path
            d="M20 26C20 20.4772 24.4772 16 30 16H308.99C312.948 16 316.533 18.3341 318.134 21.9532L350.892 95.9766C352.355 99.2822 349.934 103 346.32 103H20V26Z"
            fill="url(#paint0_linear_275_432)" />
    </g>
    <path
        d="M70.48 59.6C72.1067 59.9467 73.4133 60.76 74.4 62.04C75.3867 63.2933 75.88 64.7333 75.88 66.36C75.88 68.7067 75.0533 70.5733 73.4 71.96C71.7733 73.32 69.4933 74 66.56 74H53.48V45.92H66.12C68.9733 45.92 71.2 46.5733 72.8 47.88C74.4267 49.1867 75.24 50.96 75.24 53.2C75.24 54.8533 74.8 56.2267 73.92 57.32C73.0667 58.4133 71.92 59.1733 70.48 59.6ZM60.32 57.28H64.8C65.92 57.28 66.7733 57.04 67.36 56.56C67.9733 56.0533 68.28 55.32 68.28 54.36C68.28 53.4 67.9733 52.6667 67.36 52.16C66.7733 51.6533 65.92 51.4 64.8 51.4H60.32V57.28ZM65.36 68.48C66.5067 68.48 67.3867 68.2267 68 67.72C68.64 67.1867 68.96 66.4267 68.96 65.44C68.96 64.4533 68.6267 63.68 67.96 63.12C67.32 62.56 66.4267 62.28 65.28 62.28H60.32V68.48H65.36ZM78.4872 62.8C78.4872 60.5067 78.9139 58.4933 79.7672 56.76C80.6472 55.0267 81.8339 53.6933 83.3272 52.76C84.8205 51.8267 86.4872 51.36 88.3272 51.36C89.9005 51.36 91.2739 51.68 92.4472 52.32C93.6472 52.96 94.5672 53.8 95.2072 54.84V51.68H102.047V74H95.2072V70.84C94.5405 71.88 93.6072 72.72 92.4072 73.36C91.2339 74 89.8605 74.32 88.2872 74.32C86.4739 74.32 84.8205 73.8533 83.3272 72.92C81.8339 71.96 80.6472 70.6133 79.7672 68.88C78.9139 67.12 78.4872 65.0933 78.4872 62.8ZM95.2072 62.84C95.2072 61.1333 94.7272 59.7867 93.7672 58.8C92.8339 57.8133 91.6872 57.32 90.3272 57.32C88.9672 57.32 87.8072 57.8133 86.8472 58.8C85.9139 59.76 85.4472 61.0933 85.4472 62.8C85.4472 64.5067 85.9139 65.8667 86.8472 66.88C87.8072 67.8667 88.9672 68.36 90.3272 68.36C91.6872 68.36 92.8339 67.8667 93.7672 66.88C94.7272 65.8933 95.2072 64.5467 95.2072 62.84ZM116.076 74.32C114.129 74.32 112.396 73.9867 110.876 73.32C109.356 72.6533 108.156 71.7467 107.276 70.6C106.396 69.4267 105.902 68.12 105.796 66.68H112.556C112.636 67.4533 112.996 68.08 113.636 68.56C114.276 69.04 115.062 69.28 115.996 69.28C116.849 69.28 117.502 69.12 117.956 68.8C118.436 68.4533 118.676 68.0133 118.676 67.48C118.676 66.84 118.342 66.3733 117.676 66.08C117.009 65.76 115.929 65.4133 114.436 65.04C112.836 64.6667 111.502 64.28 110.436 63.88C109.369 63.4533 108.449 62.8 107.676 61.92C106.902 61.0133 106.516 59.8 106.516 58.28C106.516 57 106.862 55.84 107.556 54.8C108.276 53.7333 109.316 52.8933 110.676 52.28C112.062 51.6667 113.702 51.36 115.596 51.36C118.396 51.36 120.596 52.0533 122.196 53.44C123.822 54.8267 124.756 56.6667 124.996 58.96H118.676C118.569 58.1867 118.222 57.5733 117.636 57.12C117.076 56.6667 116.329 56.44 115.396 56.44C114.596 56.44 113.982 56.6 113.556 56.92C113.129 57.2133 112.916 57.6267 112.916 58.16C112.916 58.8 113.249 59.28 113.916 59.6C114.609 59.92 115.676 60.24 117.116 60.56C118.769 60.9867 120.116 61.4133 121.156 61.84C122.196 62.24 123.102 62.9067 123.876 63.84C124.676 64.7467 125.089 65.9733 125.116 67.52C125.116 68.8267 124.742 70 123.996 71.04C123.276 72.0533 122.222 72.8533 120.836 73.44C119.476 74.0267 117.889 74.32 116.076 74.32ZM132.74 49.36C131.54 49.36 130.554 49.0133 129.78 48.32C129.034 47.6 128.66 46.72 128.66 45.68C128.66 44.6133 129.034 43.7333 129.78 43.04C130.554 42.32 131.54 41.96 132.74 41.96C133.914 41.96 134.874 42.32 135.62 43.04C136.394 43.7333 136.78 44.6133 136.78 45.68C136.78 46.72 136.394 47.6 135.62 48.32C134.874 49.0133 133.914 49.36 132.74 49.36ZM136.14 51.68V74H129.3V51.68H136.14ZM139.737 62.84C139.737 60.52 140.204 58.4933 141.137 56.76C142.097 55.0267 143.417 53.6933 145.097 52.76C146.804 51.8267 148.751 51.36 150.937 51.36C153.737 51.36 156.071 52.0933 157.937 53.56C159.831 55.0267 161.071 57.0933 161.657 59.76H154.377C153.764 58.0533 152.577 57.2 150.817 57.2C149.564 57.2 148.564 57.6933 147.817 58.68C147.071 59.64 146.697 61.0267 146.697 62.84C146.697 64.6533 147.071 66.0533 147.817 67.04C148.564 68 149.564 68.48 150.817 68.48C152.577 68.48 153.764 67.6267 154.377 65.92H161.657C161.071 68.5333 159.831 70.5867 157.937 72.08C156.044 73.5733 153.711 74.32 150.937 74.32C148.751 74.32 146.804 73.8533 145.097 72.92C143.417 71.9867 142.097 70.6533 141.137 68.92C140.204 67.1867 139.737 65.16 139.737 62.84Z"
        fill="white" />
    <defs>
        <filter id="filter0_d_275_432" x="0" y="0" width="371.325" height="127"
            filterUnits="userSpaceOnUse" color-interpolation-filters="sRGB">
            <feFlood flood-opacity="0" result="BackgroundImageFix" />
            <feColorMatrix in="SourceAlpha" type="matrix"
                values="0 0 0 0 0 0 0 0 0 0 0 0 0 0 0 0 0 0 127 0" result="hardAlpha" />
            <feOffset dy="4" />
            <feGaussianBlur stdDeviation="10" />
            <feComposite in2="hardAlpha" operator="out" />
            <feColorMatrix type="matrix" values="0 0 0 0 0 0 0 0 0 0 0 0 0 0 0 0 0 0 0.11 0" />
            <feBlend mode="normal" in2="BackgroundImageFix" result="effect1_dropShadow_275_432" />
            <feBlend mode="normal" in="SourceGraphic" in2="effect1_dropShadow_275_432"
                result="shape" />
        </filter>
        <linearGradient id="paint0_linear_275_432" x1="20" y1="69.1667" x2="353.998" y2="67.6286"
            gradientUnits="userSpaceOnUse">
            <stop stop-color="#754DFB" />
            <stop offset="1" stop-color="#F561C0" />
        </linearGradient>
    </defs>
</svg>