<svg xmlns="http://www.w3.org/2000/svg" width="55" height="56" viewBox="0 0 55 56" fill="none">
    <path
        d="M48.131 22.655C47.3275 21.8153 46.4963 20.95 46.183 20.1891C45.8931 19.4921 45.8761 18.337 45.859 17.218C45.8271 15.1379 45.793 12.7806 44.154 11.1416C42.515 9.50263 40.1577 9.46853 38.0776 9.43656C36.9586 9.41951 35.8035 9.40246 35.1065 9.1126C34.3478 8.79929 33.4803 7.96808 32.6406 7.16457C31.17 5.7515 29.499 4.15088 27.2739 4.15088C25.0488 4.15088 23.38 5.7515 21.9072 7.16457C21.0675 7.96808 20.2022 8.79929 19.4413 9.1126C18.7486 9.40246 17.5892 9.41951 16.4702 9.43656C14.39 9.46853 12.0328 9.50263 10.3938 11.1416C8.75483 12.7806 8.73138 15.1379 8.68876 17.218C8.67171 18.337 8.65466 19.4921 8.3648 20.1891C8.05149 20.9478 7.22028 21.8153 6.41677 22.655C5.0037 24.1256 3.40308 25.7966 3.40308 28.0217C3.40308 30.2468 5.0037 31.9156 6.41677 33.3884C7.22028 34.2281 8.05149 35.0934 8.3648 35.8543C8.65466 36.5513 8.67171 37.7064 8.68876 38.8254C8.72073 40.9056 8.75483 43.2628 10.3938 44.9018C12.0328 46.5408 14.39 46.5749 16.4702 46.6068C17.5892 46.6239 18.7443 46.6409 19.4413 46.9308C20.2 47.2441 21.0675 48.0753 21.9072 48.8788C23.3778 50.2919 25.0488 51.8925 27.2739 51.8925C29.499 51.8925 31.1678 50.2919 32.6406 48.8788C33.4803 48.0753 34.3456 47.2441 35.1065 46.9308C35.8035 46.6409 36.9586 46.6239 38.0776 46.6068C40.1577 46.5749 42.515 46.5408 44.154 44.9018C45.793 43.2628 45.8271 40.9056 45.859 38.8254C45.8761 37.7064 45.8931 36.5513 46.183 35.8543C46.4963 35.0956 47.3275 34.2281 48.131 33.3884C49.5441 31.9178 51.1447 30.2468 51.1447 28.0217C51.1447 25.7966 49.5441 24.1278 48.131 22.655ZM37.0055 24.1129L25.0701 36.0483C24.9118 36.2068 24.7237 36.3326 24.5167 36.4184C24.3097 36.5042 24.0879 36.5483 23.8638 36.5483C23.6397 36.5483 23.4178 36.5042 23.2108 36.4184C23.0039 36.3326 22.8158 36.2068 22.6575 36.0483L17.5423 30.9331C17.2223 30.6132 17.0426 30.1792 17.0426 29.7268C17.0426 29.2743 17.2223 28.8404 17.5423 28.5204C17.8622 28.2005 18.2961 28.0208 18.7486 28.0208C19.2011 28.0208 19.635 28.2005 19.9549 28.5204L23.8638 32.4314L34.5929 21.7002C34.7513 21.5418 34.9393 21.4161 35.1463 21.3304C35.3533 21.2446 35.5752 21.2005 35.7992 21.2005C36.0232 21.2005 36.2451 21.2446 36.4521 21.3304C36.659 21.4161 36.8471 21.5418 37.0055 21.7002C37.1639 21.8586 37.2896 22.0467 37.3753 22.2537C37.4611 22.4606 37.5052 22.6825 37.5052 22.9065C37.5052 23.1306 37.4611 23.3524 37.3753 23.5594C37.2896 23.7664 37.1639 23.9544 37.0055 24.1129Z"
        fill="url(#paint0_linear_775_3711)" />
    <defs>
        <linearGradient id="paint0_linear_775_3711" x1="3.40308" y1="33.3263" x2="51.1454"
            y2="33.2691" gradientUnits="userSpaceOnUse">
            <stop stop-color="#754DFB" />
            <stop offset="1" stop-color="#F561C0" />
        </linearGradient>
    </defs>
</svg>