<svg xmlns="http://www.w3.org/2000/svg" width="6" height="5" viewBox="0 0 6 5" fill="none">
    <path
        d="M5.87775 1.17312L2.55771 4.38294C2.48014 4.4579 2.37495 4.5 2.26527 4.5C2.15559 4.5 2.05041 4.4579 1.97283 4.38294L0.120948 2.58304C0.0435001 2.50805 0 2.40641 0 2.30044C0 2.19446 0.0435001 2.09282 0.120948 2.01783L0.638089 1.51785C0.715624 1.44321 0.820591 1.4013 0.930014 1.4013C1.03944 1.4013 1.1444 1.44321 1.22194 1.51785L2.27561 2.5058L4.77754 0.116684C4.85508 0.0419591 4.96011 0 5.06959 0C5.17908 0 5.2841 0.0419591 5.36165 0.116684L5.8775 0.605156C5.91629 0.642323 5.94709 0.686548 5.96811 0.73528C5.98914 0.784012 5.99998 0.836286 6 0.889088C6.00002 0.94189 5.98923 0.994173 5.96825 1.04292C5.94727 1.09167 5.91651 1.13592 5.87775 1.17312Z"
        fill="#fff" />
</svg>