<svg xmlns="http://www.w3.org/2000/svg" width="16" height="16" viewBox="0 0 16 16" fill="none">
    <g clip-path="url(#clip0_553_5342)">
        <path
            d="M12.8215 3.66078H11.1508L10.3294 2.42891C10.2854 2.36295 10.2258 2.30886 10.1559 2.27143C10.086 2.23401 10.0079 2.2144 9.92861 2.21436H6.07146C5.99217 2.2144 5.91411 2.23401 5.8442 2.27143C5.77429 2.30886 5.71469 2.36295 5.67068 2.42891L4.84863 3.66078H3.17861C2.79499 3.66078 2.42708 3.81318 2.15583 4.08443C1.88457 4.35569 1.73218 4.7236 1.73218 5.10721V11.8572C1.73218 12.2408 1.88457 12.6087 2.15583 12.88C2.42708 13.1513 2.79499 13.3036 3.17861 13.3036H12.8215C13.2051 13.3036 13.573 13.1513 13.8442 12.88C14.1155 12.6087 14.2679 12.2408 14.2679 11.8572V5.10721C14.2679 4.7236 14.1155 4.35569 13.8442 4.08443C13.573 3.81318 13.2051 3.66078 12.8215 3.66078ZM10.1697 8.24114C10.1697 8.67026 10.0424 9.08973 9.80403 9.44653C9.56562 9.80333 9.22677 10.0814 8.83032 10.2456C8.43387 10.4098 7.99763 10.4528 7.57676 10.3691C7.15589 10.2854 6.7693 10.0787 6.46587 9.77531C6.16244 9.47188 5.9558 9.08529 5.87208 8.66442C5.78836 8.24355 5.83133 7.80731 5.99555 7.41085C6.15976 7.0144 6.43785 6.67555 6.79465 6.43715C7.15144 6.19875 7.57092 6.0715 8.00003 6.0715C8.57546 6.0715 9.12732 6.30009 9.5342 6.70697C9.94109 7.11386 10.1697 7.66572 10.1697 8.24114Z"
            fill="url(#paint0_linear_553_5342)" />
    </g>
    <defs>
        <linearGradient id="paint0_linear_553_5342" x1="1.73218" y1="8.99114" x2="14.2681"
            y2="8.97415" gradientUnits="userSpaceOnUse">
            <stop stop-color="#754DFB" />
            <stop offset="1" stop-color="#F561C0" />
        </linearGradient>
        <clipPath id="clip0_553_5342">
            <rect width="15.4286" height="15.4286" fill="white"
                transform="translate(0.285645 0.285645)" />
        </clipPath>
    </defs>
</svg>