<svg xmlns="http://www.w3.org/2000/svg" width="97" height="97" viewBox="0 0 97 97" fill="none">
    <g clip-path="url(#clip0_825_3625)">
        <path
            d="M85.4514 39.5143C84.0377 38.0368 82.5752 36.5143 82.0239 35.1755C81.5139 33.9493 81.4839 31.9168 81.4539 29.948C81.3977 26.288 81.3377 22.1405 78.4539 19.2568C75.5702 16.373 71.4227 16.313 67.7627 16.2568C65.7939 16.2268 63.7614 16.1968 62.5352 15.6868C61.2002 15.1355 59.6739 13.673 58.1964 12.2593C55.6089 9.77304 52.6689 6.95679 48.7539 6.95679C44.8389 6.95679 41.9027 9.77304 39.3114 12.2593C37.8339 13.673 36.3114 15.1355 34.9727 15.6868C33.7539 16.1968 31.7139 16.2268 29.7452 16.2568C26.0852 16.313 21.9377 16.373 19.0539 19.2568C16.1702 22.1405 16.1289 26.288 16.0539 29.948C16.0239 31.9168 15.9939 33.9493 15.4839 35.1755C14.9327 36.5105 13.4702 38.0368 12.0564 39.5143C9.57016 42.1018 6.75391 45.0418 6.75391 48.9568C6.75391 52.8718 9.57016 55.808 12.0564 58.3993C13.4702 59.8768 14.9327 61.3993 15.4839 62.738C15.9939 63.9643 16.0239 65.9968 16.0539 67.9655C16.1102 71.6255 16.1702 75.773 19.0539 78.6568C21.9377 81.5405 26.0852 81.6005 29.7452 81.6568C31.7139 81.6868 33.7464 81.7168 34.9727 82.2268C36.3077 82.778 37.8339 84.2405 39.3114 85.6543C41.8989 88.1405 44.8389 90.9568 48.7539 90.9568C52.6689 90.9568 55.6052 88.1405 58.1964 85.6543C59.6739 84.2405 61.1964 82.778 62.5352 82.2268C63.7614 81.7168 65.7939 81.6868 67.7627 81.6568C71.4227 81.6005 75.5702 81.5405 78.4539 78.6568C81.3377 75.773 81.3977 71.6255 81.4539 67.9655C81.4839 65.9968 81.5139 63.9643 82.0239 62.738C82.5752 61.403 84.0377 59.8768 85.4514 58.3993C87.9377 55.8118 90.7539 52.8718 90.7539 48.9568C90.7539 45.0418 87.9377 42.1055 85.4514 39.5143ZM45.7539 30.9568C45.7539 30.1611 46.07 29.3981 46.6326 28.8355C47.1952 28.2729 47.9583 27.9568 48.7539 27.9568C49.5496 27.9568 50.3126 28.2729 50.8752 28.8355C51.4378 29.3981 51.7539 30.1611 51.7539 30.9568V51.9568C51.7539 52.7524 51.4378 53.5155 50.8752 54.0781C50.3126 54.6407 49.5496 54.9568 48.7539 54.9568C47.9583 54.9568 47.1952 54.6407 46.6326 54.0781C46.07 53.5155 45.7539 52.7524 45.7539 51.9568V30.9568ZM48.7539 69.9568C47.8639 69.9568 46.9939 69.6929 46.2538 69.1984C45.5138 68.7039 44.937 68.0011 44.5964 67.1789C44.2559 66.3566 44.1667 65.4518 44.3404 64.5789C44.514 63.706 44.9426 62.9041 45.5719 62.2748C46.2013 61.6455 47.0031 61.2169 47.876 61.0433C48.7489 60.8696 49.6537 60.9587 50.476 61.2993C51.2982 61.6399 52.0011 62.2167 52.4955 62.9567C52.99 63.6967 53.2539 64.5668 53.2539 65.4568C53.2539 66.6503 52.7798 67.7949 51.9359 68.6388C51.092 69.4827 49.9474 69.9568 48.7539 69.9568Z"
            fill="#FF0000" />
    </g>
    <defs>
        <clipPath id="clip0_825_3625">
            <rect width="96" height="96" fill="white" transform="translate(0.753906 0.956787)" />
        </clipPath>
    </defs>
</svg>