<svg width="86" height="20" viewBox="0 0 86 20" fill="none" xmlns="http://www.w3.org/2000/svg">
    <path
        d="M10.6149 1.8578V4.42259H7.13273V15H3.93143V4.42259H0.449306V1.8578H10.6149ZM11.585 9.7581C11.585 8.68475 11.7847 7.74246 12.1841 6.93121C12.5959 6.11996 13.1513 5.49593 13.8502 5.0591C14.5492 4.62228 15.3292 4.40386 16.1904 4.40386C16.9267 4.40386 17.5695 4.55363 18.1187 4.85317C18.6803 5.15271 19.1109 5.54585 19.4104 6.0326V4.55363H22.6117V15H19.4104V13.521C19.0984 14.0078 18.6616 14.4009 18.0999 14.7005C17.5508 15 16.908 15.1498 16.1717 15.1498C15.323 15.1498 14.5492 14.9314 13.8502 14.4945C13.1513 14.0452 12.5959 13.4149 12.1841 12.6037C11.7847 11.78 11.585 10.8314 11.585 9.7581ZM19.4104 9.77682C19.4104 8.97805 19.1858 8.34777 18.7364 7.88599C18.2996 7.4242 17.7629 7.19331 17.1264 7.19331C16.4899 7.19331 15.947 7.4242 15.4977 7.88599C15.0609 8.33529 14.8425 8.95933 14.8425 9.7581C14.8425 10.5569 15.0609 11.1934 15.4977 11.6676C15.947 12.1294 16.4899 12.3603 17.1264 12.3603C17.7629 12.3603 18.2996 12.1294 18.7364 11.6676C19.1858 11.2059 19.4104 10.5756 19.4104 9.77682ZM28.129 6.0326C28.441 5.54585 28.8716 5.15271 29.4208 4.85317C29.9699 4.55363 30.6127 4.40386 31.349 4.40386C32.2102 4.40386 32.9903 4.62228 33.6892 5.0591C34.3881 5.49593 34.9373 6.11996 35.3366 6.93121C35.7485 7.74246 35.9544 8.68475 35.9544 9.7581C35.9544 10.8314 35.7485 11.78 35.3366 12.6037C34.9373 13.4149 34.3881 14.0452 33.6892 14.4945C32.9903 14.9314 32.2102 15.1498 31.349 15.1498C30.6252 15.1498 29.9824 15 29.4208 14.7005C28.8716 14.4009 28.441 14.014 28.129 13.5398V19.9798H24.9277V4.55363H28.129V6.0326ZM32.697 9.7581C32.697 8.95933 32.4723 8.33529 32.023 7.88599C31.5862 7.4242 31.0433 7.19331 30.3943 7.19331C29.7578 7.19331 29.2148 7.4242 28.7655 7.88599C28.3287 8.34777 28.1103 8.97805 28.1103 9.77682C28.1103 10.5756 28.3287 11.2059 28.7655 11.6676C29.2148 12.1294 29.7578 12.3603 30.3943 12.3603C31.0308 12.3603 31.5737 12.1294 32.023 11.6676C32.4723 11.1934 32.697 10.5569 32.697 9.7581ZM45.684 7.0997V9.7581H37.4467V7.0997H45.684Z"
        fill="#141316" />
    <path
        d="M51.6949 12.5288H55.8884V15H48.4936V1.8578H51.6949V12.5288ZM59.0254 3.46781C58.4638 3.46781 58.002 3.30556 57.64 2.98106C57.2906 2.64408 57.1158 2.23222 57.1158 1.74547C57.1158 1.24624 57.2906 0.834376 57.64 0.509877C58.002 0.172897 58.4638 0.00440709 59.0254 0.00440709C59.5745 0.00440709 60.0239 0.172897 60.3733 0.509877C60.7353 0.834376 60.9162 1.24624 60.9162 1.74547C60.9162 2.23222 60.7353 2.64408 60.3733 2.98106C60.0239 3.30556 59.5745 3.46781 59.0254 3.46781ZM60.6167 4.55363V15H57.4154V4.55363H60.6167ZM69.3018 4.44131C70.5249 4.44131 71.4984 4.84069 72.2223 5.63946C72.9587 6.42574 73.3268 7.51156 73.3268 8.89693V15H70.1443V9.32751C70.1443 8.62859 69.9633 8.08568 69.6014 7.69878C69.2394 7.31187 68.7527 7.11842 68.1411 7.11842C67.5296 7.11842 67.0428 7.31187 66.6809 7.69878C66.3189 8.08568 66.1379 8.62859 66.1379 9.32751V15H62.9366V4.55363H66.1379V5.93899C66.4624 5.47721 66.8993 5.11526 67.4484 4.85317C67.9976 4.57859 68.6154 4.44131 69.3018 4.44131ZM81.9353 15L78.7527 10.6193V15H75.5514V1.14639H78.7527V8.80332L81.9166 4.55363H85.8668L81.5235 9.79554L85.9042 15H81.9353Z"
        fill="url(#paint0_linear_517_3231)" />
    <defs>
        <linearGradient id="paint0_linear_517_3231" x1="1.6575e-07" y1="11.1111" x2="86.0003"
            y2="10.7943" gradientUnits="userSpaceOnUse">
            <stop stop-color="#754DFB" />
            <stop offset="1" stop-color="#F561C0" />
        </linearGradient>
    </defs>
</svg>