<svg xmlns="http://www.w3.org/2000/svg" width="12" height="12" viewBox="0 0 12 12" fill="none">
    <g clip-path="url(#clip0_723_1008)">
        <path
            d="M10.7585 3.63629L8.82526 1.70258C8.76098 1.63828 8.68465 1.58727 8.60064 1.55247C8.51664 1.51767 8.4266 1.49976 8.33567 1.49976C8.24474 1.49976 8.15471 1.51767 8.0707 1.55247C7.9867 1.58727 7.91037 1.63828 7.84608 1.70258L2.51055 7.03855C2.44599 7.1026 2.3948 7.17885 2.35996 7.26286C2.32512 7.34687 2.30733 7.43697 2.30762 7.52792V9.46162C2.30762 9.64523 2.38056 9.82132 2.51039 9.95116C2.64023 10.081 2.81632 10.1539 2.99993 10.1539H4.93363C5.02458 10.1542 5.11468 10.1364 5.19869 10.1016C5.2827 10.0668 5.35895 10.0156 5.42301 9.951L10.7585 4.61547C10.8228 4.55118 10.8738 4.47485 10.9086 4.39085C10.9434 4.30684 10.9614 4.21681 10.9614 4.12588C10.9614 4.03495 10.9434 3.94491 10.9086 3.86091C10.8738 3.7769 10.8228 3.70057 10.7585 3.63629ZM9.2307 5.16412L7.297 3.23085L8.33546 2.19239L10.2692 4.12566L9.2307 5.16412Z"
            fill="currentColor" />
    </g>
    <defs>
        <clipPath id="clip0_723_1008">
            <rect width="11.0769" height="11.0769" fill="currentColor"
                transform="translate(0.922852 0.461426)" />
        </clipPath>
    </defs>
</svg>