<svg xmlns="http://www.w3.org/2000/svg" width="27" height="27" viewBox="0 0 27 27" fill="none">
    <g clip-path="url(#clip0_553_3403)">
        <path
            d="M18.0308 18.2205C17.2857 18.2157 16.5518 18.0381 15.887 17.7016C15.2222 17.3652 14.6445 16.8791 14.1993 16.2816C13.7542 15.6841 13.4537 14.9914 13.3216 14.2581C13.1894 13.5248 13.2293 12.7708 13.4379 12.0555C13.6465 11.3402 14.0182 10.683 14.5238 10.1357C15.0294 9.58838 15.6551 9.16582 16.3516 8.90125C17.0482 8.63669 17.7966 8.53734 18.5381 8.61102C19.2796 8.68469 19.9938 8.92939 20.6247 9.32585C20.6853 9.36447 20.7551 9.38612 20.8269 9.38854C20.8987 9.39096 20.9698 9.37407 21.0329 9.33962C21.0959 9.30518 21.1486 9.25445 21.1853 9.19272C21.2221 9.13099 21.2416 9.06053 21.2418 8.98869V5.37625C21.2418 5.16334 21.1572 4.95916 21.0067 4.80861C20.8561 4.65806 20.652 4.57349 20.4391 4.57349H5.98929C5.77638 4.57349 5.5722 4.65806 5.42165 4.80861C5.2711 4.95916 5.18652 5.16334 5.18652 5.37625V21.4315C5.18652 21.6445 5.2711 21.8486 5.42165 21.9992C5.5722 22.1497 5.77638 22.2343 5.98929 22.2343H20.4391C20.652 22.2343 20.8561 22.1497 21.0067 21.9992C21.1572 21.8486 21.2418 21.6445 21.2418 21.4315V17.8191C21.2416 17.7476 21.2223 17.6774 21.1858 17.6158C21.1494 17.5542 21.0971 17.5035 21.0345 17.469C20.9719 17.4344 20.9011 17.4171 20.8296 17.4191C20.7581 17.421 20.6884 17.442 20.6277 17.4799C19.8269 17.9937 19.0613 18.2616 18.0308 18.2205Z"
            stroke="currentColor" stroke-width="1.28442" stroke-linecap="round"
            stroke-linejoin="round" />
    </g>
    <defs>
        <clipPath id="clip0_553_3403">
            <rect width="25.6885" height="25.6885" fill="currentColor"
                transform="translate(0.369629 0.55957)" />
        </clipPath>
    </defs>
</svg>