<svg width="372" height="127" viewBox="0 0 372 127" fill="none" xmlns="http://www.w3.org/2000/svg">
<path d="M45 120L20 103H45V120Z" fill="#232631"/>
<g filter="url(#filter0_d_275_1049)">
<path d="M20 26C20 20.4772 24.4772 16 30 16H308.99C312.948 16 316.533 18.3341 318.134 21.9532L350.892 95.9766C352.355 99.2822 349.934 103 346.32 103H20V26Z" fill="url(#paint0_linear_275_1049)"/>
</g>
<path d="M74.88 54.96C74.88 56.5867 74.5067 58.08 73.76 59.44C73.0133 60.7733 71.8667 61.8533 70.32 62.68C68.7733 63.5067 66.8533 63.92 64.56 63.92H60.32V74H53.48V45.92H64.56C66.8 45.92 68.6933 46.3067 70.24 47.08C71.7867 47.8533 72.9467 48.92 73.72 50.28C74.4933 51.64 74.88 53.2 74.88 54.96ZM64.04 58.48C65.3467 58.48 66.32 58.1733 66.96 57.56C67.6 56.9467 67.92 56.08 67.92 54.96C67.92 53.84 67.6 52.9733 66.96 52.36C66.32 51.7467 65.3467 51.44 64.04 51.44H60.32V58.48H64.04ZM85.2809 55.4C86.0809 54.1733 87.0809 53.2133 88.2809 52.52C89.4809 51.8 90.8143 51.44 92.2809 51.44V58.68H90.4009C88.6943 58.68 87.4143 59.0533 86.5609 59.8C85.7076 60.52 85.2809 61.8 85.2809 63.64V74H78.4409V51.68H85.2809V55.4ZM116.59 62.48C116.59 63.12 116.55 63.7867 116.47 64.48H100.99C101.097 65.8667 101.537 66.9333 102.31 67.68C103.11 68.4 104.084 68.76 105.23 68.76C106.937 68.76 108.124 68.04 108.79 66.6H116.07C115.697 68.0667 115.017 69.3867 114.03 70.56C113.07 71.7333 111.857 72.6533 110.39 73.32C108.924 73.9867 107.284 74.32 105.47 74.32C103.284 74.32 101.337 73.8533 99.6303 72.92C97.9236 71.9867 96.5903 70.6533 95.6303 68.92C94.6703 67.1867 94.1903 65.16 94.1903 62.84C94.1903 60.52 94.657 58.4933 95.5903 56.76C96.5503 55.0267 97.8836 53.6933 99.5903 52.76C101.297 51.8267 103.257 51.36 105.47 51.36C107.63 51.36 109.55 51.8133 111.23 52.72C112.91 53.6267 114.217 54.92 115.15 56.6C116.11 58.28 116.59 60.24 116.59 62.48ZM109.59 60.68C109.59 59.5067 109.19 58.5733 108.39 57.88C107.59 57.1867 106.59 56.84 105.39 56.84C104.244 56.84 103.27 57.1733 102.47 57.84C101.697 58.5067 101.217 59.4533 101.03 60.68H109.59ZM148.679 51.44C151.452 51.44 153.652 52.28 155.279 53.96C156.932 55.64 157.759 57.9733 157.759 60.96V74H150.959V61.88C150.959 60.44 150.572 59.3333 149.799 58.56C149.052 57.76 148.012 57.36 146.679 57.36C145.345 57.36 144.292 57.76 143.519 58.56C142.772 59.3333 142.399 60.44 142.399 61.88V74H135.599V61.88C135.599 60.44 135.212 59.3333 134.439 58.56C133.692 57.76 132.652 57.36 131.319 57.36C129.985 57.36 128.932 57.76 128.159 58.56C127.412 59.3333 127.039 60.44 127.039 61.88V74H120.199V51.68H127.039V54.48C127.732 53.5467 128.639 52.8133 129.759 52.28C130.879 51.72 132.145 51.44 133.559 51.44C135.239 51.44 136.732 51.8 138.039 52.52C139.372 53.24 140.412 54.2667 141.159 55.6C141.932 54.3733 142.985 53.3733 144.319 52.6C145.652 51.8267 147.105 51.44 148.679 51.44ZM165.983 49.36C164.783 49.36 163.796 49.0133 163.023 48.32C162.276 47.6 161.903 46.72 161.903 45.68C161.903 44.6133 162.276 43.7333 163.023 43.04C163.796 42.32 164.783 41.96 165.983 41.96C167.156 41.96 168.116 42.32 168.863 43.04C169.636 43.7333 170.023 44.6133 170.023 45.68C170.023 46.72 169.636 47.6 168.863 48.32C168.116 49.0133 167.156 49.36 165.983 49.36ZM169.383 51.68V74H162.543V51.68H169.383ZM196.379 51.68V74H189.539V70.96C188.846 71.9467 187.899 72.7467 186.699 73.36C185.526 73.9467 184.219 74.24 182.779 74.24C181.073 74.24 179.566 73.8667 178.259 73.12C176.953 72.3467 175.939 71.24 175.219 69.8C174.499 68.36 174.139 66.6667 174.139 64.72V51.68H180.939V63.8C180.939 65.2933 181.326 66.4533 182.099 67.28C182.873 68.1067 183.913 68.52 185.219 68.52C186.553 68.52 187.606 68.1067 188.379 67.28C189.153 66.4533 189.539 65.2933 189.539 63.8V51.68H196.379ZM229.773 51.44C232.546 51.44 234.746 52.28 236.373 53.96C238.026 55.64 238.853 57.9733 238.853 60.96V74H232.053V61.88C232.053 60.44 231.666 59.3333 230.893 58.56C230.146 57.76 229.106 57.36 227.773 57.36C226.439 57.36 225.386 57.76 224.613 58.56C223.866 59.3333 223.493 60.44 223.493 61.88V74H216.693V61.88C216.693 60.44 216.306 59.3333 215.533 58.56C214.786 57.76 213.746 57.36 212.413 57.36C211.079 57.36 210.026 57.76 209.253 58.56C208.506 59.3333 208.133 60.44 208.133 61.88V74H201.293V51.68H208.133V54.48C208.826 53.5467 209.733 52.8133 210.853 52.28C211.973 51.72 213.239 51.44 214.653 51.44C216.333 51.44 217.826 51.8 219.133 52.52C220.466 53.24 221.506 54.2667 222.253 55.6C223.026 54.3733 224.079 53.3733 225.413 52.6C226.746 51.8267 228.199 51.44 229.773 51.44Z" fill="white"/>
<defs>
<filter id="filter0_d_275_1049" x="0" y="0" width="371.325" height="127" filterUnits="userSpaceOnUse" color-interpolation-filters="sRGB">
<feFlood flood-opacity="0" result="BackgroundImageFix"/>
<feColorMatrix in="SourceAlpha" type="matrix" values="0 0 0 0 0 0 0 0 0 0 0 0 0 0 0 0 0 0 127 0" result="hardAlpha"/>
<feOffset dy="4"/>
<feGaussianBlur stdDeviation="10"/>
<feComposite in2="hardAlpha" operator="out"/>
<feColorMatrix type="matrix" values="0 0 0 0 0 0 0 0 0 0 0 0 0 0 0 0 0 0 0.11 0"/>
<feBlend mode="normal" in2="BackgroundImageFix" result="effect1_dropShadow_275_1049"/>
<feBlend mode="normal" in="SourceGraphic" in2="effect1_dropShadow_275_1049" result="shape"/>
</filter>
<linearGradient id="paint0_linear_275_1049" x1="20" y1="69.1667" x2="353.998" y2="67.6286" gradientUnits="userSpaceOnUse">
<stop stop-color="#754DFB"/>
<stop offset="1" stop-color="#F561C0"/>
</linearGradient>
</defs>
</svg>
