<svg xmlns="http://www.w3.org/2000/svg" width="21" height="21" viewBox="0 0 21 21" fill="none">
    <g clip-path="url(#clip0_731_2617)">
        <path
            d="M10.3969 15.2693C10.9224 15.2693 11.3485 14.8433 11.3485 14.3178C11.3485 13.7922 10.9224 13.3662 10.3969 13.3662C9.87134 13.3662 9.44531 13.7922 9.44531 14.3178C9.44531 14.8433 9.87134 15.2693 10.3969 15.2693Z"
            fill="#666C81" />
        <path
            d="M10.3969 11.463V10.8286C11.7981 10.8286 12.9344 9.8342 12.9344 8.60827C12.9344 7.38233 11.7981 6.38794 10.3969 6.38794C8.99571 6.38794 7.85938 7.38233 7.85938 8.60827V8.92546"
            stroke="#666C81" stroke-width="1.26876" stroke-linecap="round" stroke-linejoin="round" />
        <path
            d="M10.3972 17.8069C14.6015 17.8069 18.0098 14.3986 18.0098 10.1943C18.0098 5.99004 14.6015 2.58179 10.3972 2.58179C6.19292 2.58179 2.78467 5.99004 2.78467 10.1943C2.78467 14.3986 6.19292 17.8069 10.3972 17.8069Z"
            stroke="#666C81" stroke-width="1.26876" stroke-linecap="round" stroke-linejoin="round" />
    </g>
    <defs>
        <clipPath id="clip0_731_2617">
            <rect width="20.3001" height="20.3001" fill="white"
                transform="translate(0.24707 0.0441895)" />
        </clipPath>
    </defs>
</svg>