<svg xmlns="http://www.w3.org/2000/svg" width="22" height="22" viewBox="0 0 22 22" fill="none">
    <g clip-path="url(#clip0_553_4542)">
        <path
            d="M10.7099 14.3307C12.5583 14.3307 14.0568 12.8323 14.0568 10.9838C14.0568 9.13541 12.5583 7.63696 10.7099 7.63696C8.86148 7.63696 7.36304 9.13541 7.36304 10.9838C7.36304 12.8323 8.86148 14.3307 10.7099 14.3307Z"
            stroke="currentColor" stroke-linecap="round" stroke-linejoin="round" />
        <path
            d="M10.8815 17.5195C10.7694 17.5195 10.6564 17.5195 10.5468 17.5195L7.8651 19.0164C6.82115 18.6653 5.85285 18.1202 5.01106 17.4099L5.00102 14.3977C4.94161 14.304 4.88555 14.2095 4.83367 14.1124L2.16705 12.5938C1.95701 11.5314 1.95701 10.4381 2.16705 9.37574L4.83116 7.86128C4.88555 7.76506 4.94161 7.66967 4.99851 7.57596L5.01189 4.56377C5.85293 3.85143 6.82098 3.30438 7.8651 2.95142L10.5426 4.44831C10.6547 4.44831 10.7677 4.44831 10.8773 4.44831L13.5548 2.95142C14.5987 3.30258 15.567 3.84761 16.4088 4.55792L16.4189 7.5701C16.4783 7.66382 16.5343 7.75837 16.5862 7.85542L19.2512 9.37323C19.4612 10.4356 19.4612 11.5289 19.2512 12.5913L16.5871 14.1057C16.5327 14.2019 16.4766 14.2973 16.4197 14.391L16.4063 17.4032C15.5659 18.1157 14.5984 18.663 13.5548 19.0164L10.8815 17.5195Z"
            stroke="currentColor" stroke-linecap="round" stroke-linejoin="round" />
    </g>
    <defs>
        <clipPath id="clip0_553_4542">
            <rect width="21.42" height="21.42" fill="currentColor" transform="translate(0 0.273926)" />
        </clipPath>
    </defs>
</svg>