<svg width="372" height="127" viewBox="0 0 372 127" fill="none" xmlns="http://www.w3.org/2000/svg">
<path d="M45 120L20 103H45V120Z" fill="#232631"/>
<g filter="url(#filter0_d_275_1017)">
<path d="M20 26C20 20.4772 24.4772 16 30 16H308.99C312.948 16 316.533 18.3341 318.134 21.9532L350.892 95.9766C352.355 99.2822 349.934 103 346.32 103H20V26Z" fill="url(#paint0_linear_275_1017)"/>
</g>
<path d="M63.64 74.28C61.5867 74.28 59.7467 73.9467 58.12 73.28C56.4933 72.6133 55.1867 71.6267 54.2 70.32C53.24 69.0133 52.7333 67.44 52.68 65.6H59.96C60.0667 66.64 60.4267 67.44 61.04 68C61.6533 68.5333 62.4533 68.8 63.44 68.8C64.4533 68.8 65.2533 68.5733 65.84 68.12C66.4267 67.64 66.72 66.9867 66.72 66.16C66.72 65.4667 66.48 64.8933 66 64.44C65.5467 63.9867 64.9733 63.6133 64.28 63.32C63.6133 63.0267 62.6533 62.6933 61.4 62.32C59.5867 61.76 58.1067 61.2 56.96 60.64C55.8133 60.08 54.8267 59.2533 54 58.16C53.1733 57.0667 52.76 55.64 52.76 53.88C52.76 51.2667 53.7067 49.2267 55.6 47.76C57.4933 46.2667 59.96 45.52 63 45.52C66.0933 45.52 68.5867 46.2667 70.48 47.76C72.3733 49.2267 73.3867 51.28 73.52 53.92H66.12C66.0667 53.0133 65.7333 52.3067 65.12 51.8C64.5067 51.2667 63.72 51 62.76 51C61.9333 51 61.2667 51.2267 60.76 51.68C60.2533 52.1067 60 52.7333 60 53.56C60 54.4667 60.4267 55.1733 61.28 55.68C62.1333 56.1867 63.4667 56.7333 65.28 57.32C67.0933 57.9333 68.56 58.52 69.68 59.08C70.8267 59.64 71.8133 60.4533 72.64 61.52C73.4667 62.5867 73.88 63.96 73.88 65.64C73.88 67.24 73.4667 68.6933 72.64 70C71.84 71.3067 70.6667 72.3467 69.12 73.12C67.5733 73.8933 65.7467 74.28 63.64 74.28ZM90.5294 68.2V74H87.0494C84.5694 74 82.636 73.4 81.2494 72.2C79.8627 70.9733 79.1694 68.9867 79.1694 66.24V57.36H76.4494V51.68H79.1694V46.24H86.0094V51.68H90.4894V57.36H86.0094V66.32C86.0094 66.9867 86.1694 67.4667 86.4894 67.76C86.8094 68.0533 87.3427 68.2 88.0894 68.2H90.5294ZM92.9794 62.8C92.9794 60.5067 93.406 58.4933 94.2594 56.76C95.1394 55.0267 96.326 53.6933 97.8194 52.76C99.3127 51.8267 100.979 51.36 102.819 51.36C104.393 51.36 105.766 51.68 106.939 52.32C108.139 52.96 109.059 53.8 109.699 54.84V51.68H116.539V74H109.699V70.84C109.033 71.88 108.099 72.72 106.899 73.36C105.726 74 104.353 74.32 102.779 74.32C100.966 74.32 99.3127 73.8533 97.8194 72.92C96.326 71.96 95.1394 70.6133 94.2594 68.88C93.406 67.12 92.9794 65.0933 92.9794 62.8ZM109.699 62.84C109.699 61.1333 109.219 59.7867 108.259 58.8C107.326 57.8133 106.179 57.32 104.819 57.32C103.459 57.32 102.299 57.8133 101.339 58.8C100.406 59.76 99.9394 61.0933 99.9394 62.8C99.9394 64.5067 100.406 65.8667 101.339 66.88C102.299 67.8667 103.459 68.36 104.819 68.36C106.179 68.36 107.326 67.8667 108.259 66.88C109.219 65.8933 109.699 64.5467 109.699 62.84ZM135.088 51.44C137.701 51.44 139.781 52.2933 141.328 54C142.901 55.68 143.688 58 143.688 60.96V74H136.888V61.88C136.888 60.3867 136.501 59.2267 135.728 58.4C134.954 57.5733 133.914 57.16 132.608 57.16C131.301 57.16 130.261 57.5733 129.488 58.4C128.714 59.2267 128.328 60.3867 128.328 61.88V74H121.488V51.68H128.328V54.64C129.021 53.6533 129.954 52.88 131.128 52.32C132.301 51.7333 133.621 51.44 135.088 51.44ZM147.081 62.8C147.081 60.5067 147.508 58.4933 148.361 56.76C149.241 55.0267 150.428 53.6933 151.921 52.76C153.414 51.8267 155.081 51.36 156.921 51.36C158.388 51.36 159.721 51.6667 160.921 52.28C162.148 52.8933 163.108 53.72 163.801 54.76V44.4H170.641V74H163.801V70.8C163.161 71.8667 162.241 72.72 161.041 73.36C159.868 74 158.494 74.32 156.921 74.32C155.081 74.32 153.414 73.8533 151.921 72.92C150.428 71.96 149.241 70.6133 148.361 68.88C147.508 67.12 147.081 65.0933 147.081 62.8ZM163.801 62.84C163.801 61.1333 163.321 59.7867 162.361 58.8C161.428 57.8133 160.281 57.32 158.921 57.32C157.561 57.32 156.401 57.8133 155.441 58.8C154.508 59.76 154.041 61.0933 154.041 62.8C154.041 64.5067 154.508 65.8667 155.441 66.88C156.401 67.8667 157.561 68.36 158.921 68.36C160.281 68.36 161.428 67.8667 162.361 66.88C163.321 65.8933 163.801 64.5467 163.801 62.84ZM174.229 62.8C174.229 60.5067 174.656 58.4933 175.509 56.76C176.389 55.0267 177.576 53.6933 179.069 52.76C180.563 51.8267 182.229 51.36 184.069 51.36C185.643 51.36 187.016 51.68 188.189 52.32C189.389 52.96 190.309 53.8 190.949 54.84V51.68H197.789V74H190.949V70.84C190.283 71.88 189.349 72.72 188.149 73.36C186.976 74 185.603 74.32 184.029 74.32C182.216 74.32 180.563 73.8533 179.069 72.92C177.576 71.96 176.389 70.6133 175.509 68.88C174.656 67.12 174.229 65.0933 174.229 62.8ZM190.949 62.84C190.949 61.1333 190.469 59.7867 189.509 58.8C188.576 57.8133 187.429 57.32 186.069 57.32C184.709 57.32 183.549 57.8133 182.589 58.8C181.656 59.76 181.189 61.0933 181.189 62.8C181.189 64.5067 181.656 65.8667 182.589 66.88C183.549 67.8667 184.709 68.36 186.069 68.36C187.429 68.36 188.576 67.8667 189.509 66.88C190.469 65.8933 190.949 64.5467 190.949 62.84ZM209.578 55.4C210.378 54.1733 211.378 53.2133 212.578 52.52C213.778 51.8 215.111 51.44 216.578 51.44V58.68H214.698C212.991 58.68 211.711 59.0533 210.858 59.8C210.004 60.52 209.578 61.8 209.578 63.64V74H202.738V51.68H209.578V55.4ZM218.487 62.8C218.487 60.5067 218.914 58.4933 219.767 56.76C220.647 55.0267 221.834 53.6933 223.327 52.76C224.821 51.8267 226.487 51.36 228.327 51.36C229.794 51.36 231.127 51.6667 232.327 52.28C233.554 52.8933 234.514 53.72 235.207 54.76V44.4H242.047V74H235.207V70.8C234.567 71.8667 233.647 72.72 232.447 73.36C231.274 74 229.901 74.32 228.327 74.32C226.487 74.32 224.821 73.8533 223.327 72.92C221.834 71.96 220.647 70.6133 219.767 68.88C218.914 67.12 218.487 65.0933 218.487 62.8ZM235.207 62.84C235.207 61.1333 234.727 59.7867 233.767 58.8C232.834 57.8133 231.687 57.32 230.327 57.32C228.967 57.32 227.807 57.8133 226.847 58.8C225.914 59.76 225.447 61.0933 225.447 62.8C225.447 64.5067 225.914 65.8667 226.847 66.88C227.807 67.8667 228.967 68.36 230.327 68.36C231.687 68.36 232.834 67.8667 233.767 66.88C234.727 65.8933 235.207 64.5467 235.207 62.84Z" fill="white"/>
<defs>
<filter id="filter0_d_275_1017" x="0" y="0" width="371.325" height="127" filterUnits="userSpaceOnUse" color-interpolation-filters="sRGB">
<feFlood flood-opacity="0" result="BackgroundImageFix"/>
<feColorMatrix in="SourceAlpha" type="matrix" values="0 0 0 0 0 0 0 0 0 0 0 0 0 0 0 0 0 0 127 0" result="hardAlpha"/>
<feOffset dy="4"/>
<feGaussianBlur stdDeviation="10"/>
<feComposite in2="hardAlpha" operator="out"/>
<feColorMatrix type="matrix" values="0 0 0 0 0 0 0 0 0 0 0 0 0 0 0 0 0 0 0.11 0"/>
<feBlend mode="normal" in2="BackgroundImageFix" result="effect1_dropShadow_275_1017"/>
<feBlend mode="normal" in="SourceGraphic" in2="effect1_dropShadow_275_1017" result="shape"/>
</filter>
<linearGradient id="paint0_linear_275_1017" x1="20" y1="69.1667" x2="353.998" y2="67.6286" gradientUnits="userSpaceOnUse">
<stop stop-color="#754DFB"/>
<stop offset="1" stop-color="#F561C0"/>
</linearGradient>
</defs>
</svg>
