<svg xmlns="http://www.w3.org/2000/svg" width="12" height="12" viewBox="0 0 12 12" fill="none">
    <g clip-path="url(#clip0_723_1012)">
        <path
            d="M10.2692 2.53842H8.53839V2.19227C8.53839 1.91685 8.42898 1.65272 8.23423 1.45797C8.03948 1.26322 7.77534 1.15381 7.49993 1.15381H5.423C5.14758 1.15381 4.88345 1.26322 4.6887 1.45797C4.49395 1.65272 4.38454 1.91685 4.38454 2.19227V2.53842H2.65377C2.56197 2.53842 2.47392 2.57489 2.409 2.63981C2.34409 2.70473 2.30762 2.79277 2.30762 2.88458C2.30762 2.97638 2.34409 3.06443 2.409 3.12935C2.47392 3.19426 2.56197 3.23073 2.65377 3.23073H2.99992V9.4615C2.99992 9.64511 3.07286 9.8212 3.2027 9.95104C3.33253 10.0809 3.50862 10.1538 3.69223 10.1538H9.23069C9.41431 10.1538 9.5904 10.0809 9.72023 9.95104C9.85006 9.8212 9.923 9.64511 9.923 9.4615V3.23073H10.2692C10.361 3.23073 10.449 3.19426 10.5139 3.12935C10.5788 3.06443 10.6153 2.97638 10.6153 2.88458C10.6153 2.79277 10.5788 2.70473 10.5139 2.63981C10.449 2.57489 10.361 2.53842 10.2692 2.53842ZM5.76916 7.73073C5.76916 7.82254 5.73269 7.91058 5.66777 7.9755C5.60285 8.04042 5.51481 8.07689 5.423 8.07689C5.3312 8.07689 5.24315 8.04042 5.17823 7.9755C5.11332 7.91058 5.07685 7.82254 5.07685 7.73073V4.9615C5.07685 4.8697 5.11332 4.78165 5.17823 4.71673C5.24315 4.65182 5.3312 4.61535 5.423 4.61535C5.51481 4.61535 5.60285 4.65182 5.66777 4.71673C5.73269 4.78165 5.76916 4.8697 5.76916 4.9615V7.73073ZM7.84608 7.73073C7.84608 7.82254 7.80961 7.91058 7.74469 7.9755C7.67978 8.04042 7.59173 8.07689 7.49993 8.07689C7.40812 8.07689 7.32007 8.04042 7.25516 7.9755C7.19024 7.91058 7.15377 7.82254 7.15377 7.73073V4.9615C7.15377 4.8697 7.19024 4.78165 7.25516 4.71673C7.32007 4.65182 7.40812 4.61535 7.49993 4.61535C7.59173 4.61535 7.67978 4.65182 7.74469 4.71673C7.80961 4.78165 7.84608 4.8697 7.84608 4.9615V7.73073ZM7.84608 2.53842H5.07685V2.19227C5.07685 2.10046 5.11332 2.01242 5.17823 1.9475C5.24315 1.88259 5.3312 1.84612 5.423 1.84612H7.49993C7.59173 1.84612 7.67978 1.88259 7.74469 1.9475C7.80961 2.01242 7.84608 2.10046 7.84608 2.19227V2.53842Z"
            fill="currentColor" />
    </g>
    <defs>
        <clipPath id="clip0_723_1012">
            <rect width="11.0769" height="11.0769" fill="white"
                transform="translate(0.922852 0.461426)" />
        </clipPath>
    </defs>
</svg>