<svg xmlns="http://www.w3.org/2000/svg" width="26" height="27" viewBox="0 0 26 27" fill="none">
    <g clip-path="url(#clip0_553_3320)">
        <path
            d="M8.39166 16.4904C11.2604 16.4904 13.5861 14.1647 13.5861 11.296C13.5861 8.42717 11.2604 6.10156 8.39166 6.10156C5.52288 6.10156 3.19727 8.42717 3.19727 11.296C3.19727 14.1647 5.52288 16.4904 8.39166 16.4904Z"
            stroke="currentColor" stroke-width="1.27862" stroke-linecap="round"
            stroke-linejoin="round" />
        <path
            d="M1.02295 20.4856C1.82118 19.2583 2.91331 18.2498 4.20019 17.5516C5.48707 16.8535 6.92794 16.4878 8.392 16.4878C9.85606 16.4878 11.2969 16.8535 12.5838 17.5516C13.8707 18.2498 14.9628 19.2583 15.7611 20.4856"
            stroke="currentColor" stroke-width="1.27862" stroke-linecap="round"
            stroke-linejoin="round" />
        <path
            d="M17.1824 16.49C18.6464 16.4891 20.0873 16.8542 21.3743 17.552C22.6613 18.2499 23.7534 19.2583 24.5514 20.4857"
            stroke="currentColor" stroke-width="1.27862" stroke-linecap="round"
            stroke-linejoin="round" />
        <path
            d="M15.2532 6.47116C15.9637 6.18776 16.7281 6.06481 17.4917 6.11107C18.2553 6.15734 18.9992 6.37169 19.6703 6.73881C20.3415 7.10593 20.9232 7.61675 21.374 8.23477C21.8249 8.8528 22.1336 9.56277 22.2782 10.314C22.4229 11.0651 22.3998 11.839 22.2106 12.5802C22.0215 13.3215 21.671 14.0118 21.1841 14.6018C20.6973 15.1919 20.0861 15.6671 19.3943 15.9936C18.7025 16.3201 17.9471 16.4897 17.1821 16.4904"
            stroke="currentColor" stroke-width="1.27862" stroke-linecap="round"
            stroke-linejoin="round" />
    </g>
    <defs>
        <clipPath id="clip0_553_3320">
            <rect width="25.5724" height="25.5724" fill="currentColor"
                transform="translate(0.000976562 0.507324)" />
        </clipPath>
    </defs>
</svg>